<svg width="176" height="176" viewBox="0 0 176 176" fill="none" xmlns="http://www.w3.org/2000/svg">
<path d="M176 88C176 136.601 136.601 176 88 176C39.3989 176 0 136.601 0 88C0 39.3989 39.3989 0 88 0C136.601 0 176 39.3989 176 88ZM19.3447 88C19.3447 125.917 50.0827 156.655 88 156.655C125.917 156.655 156.655 125.917 156.655 88C156.655 50.0827 125.917 19.3447 88 19.3447C50.0827 19.3447 19.3447 50.0827 19.3447 88Z" fill="#FFD66B"/>
<path d="M55.7164 159.275C53.4937 164.182 47.6783 166.404 43.0469 163.652C27.4301 154.373 14.9925 140.438 7.56113 123.687C0.129757 106.937 -1.85514 88.3643 1.74542 70.5591C2.81321 65.2788 8.36293 62.4582 13.4928 64.1035V64.1035C18.6226 65.7488 21.3727 71.2402 20.4722 76.5517C18.2337 89.7553 19.905 103.404 25.3937 115.776C30.8825 128.147 39.8801 138.546 51.1713 145.747C55.7134 148.644 57.9392 154.368 55.7164 159.275V159.275Z" fill="#FF8F6B"/>
<path d="M88 9.85538C88 4.41241 92.4261 -0.0570246 97.835 0.551291C108.349 1.73375 118.591 4.80588 128.059 9.64669C140.461 15.9872 151.18 25.1809 159.336 36.4718C167.492 47.7627 172.851 60.8283 174.973 74.5941C177.095 88.3599 175.919 102.433 171.541 115.656C167.164 128.878 159.711 140.873 149.794 150.654C139.877 160.434 127.781 167.721 114.499 171.915C101.217 176.11 87.1291 177.091 73.3939 174.779C62.9074 173.014 52.8552 169.368 43.7125 164.044C39.009 161.304 38.1241 155.077 41.3719 150.709V150.709C44.6196 146.341 50.7679 145.505 55.5574 148.091C62.1287 151.639 69.2574 154.095 76.6655 155.342C87.3242 157.136 98.2565 156.374 108.563 153.12C118.87 149.865 128.258 144.21 135.953 136.62C143.649 129.03 149.433 119.722 152.829 109.461C156.226 99.2001 157.139 88.2793 155.492 77.5968C153.846 66.9144 149.687 56.7753 143.358 48.0134C137.029 39.2515 128.71 32.117 119.087 27.1967C112.398 23.777 105.211 21.4947 97.8213 20.4207C92.4349 19.6379 88 15.2984 88 9.85538V9.85538Z" fill="#5B93FF"/>
</svg>
