<svg width="8" height="7" viewBox="0 0 8 7" fill="none" xmlns="http://www.w3.org/2000/svg">
<path opacity="0.5" d="M3.246 6.42052C3.20733 6.38285 3.042 6.24062 2.906 6.10813C2.05067 5.33138 0.650667 3.30508 0.223333 2.24452C0.154667 2.08345 0.00933333 1.67625 0 1.45868C0 1.2502 0.048 1.05147 0.145333 0.861828C0.281333 0.625426 0.495333 0.435785 0.748 0.331872C0.923333 0.264978 1.448 0.161065 1.45733 0.161065C2.03133 0.0571521 2.964 0 3.99467 0C4.97667 0 5.87133 0.0571521 6.454 0.142231C6.46333 0.151973 7.11533 0.255886 7.33867 0.36954C7.74667 0.578016 8 0.985225 8 1.42101V1.45868C7.99 1.74249 7.73667 2.33934 7.72733 2.33934C7.29933 3.34275 5.968 5.32229 5.08333 6.11788C5.08333 6.11788 4.856 6.34194 4.714 6.43936C4.51 6.59133 4.25733 6.66667 4.00467 6.66667C3.72267 6.66667 3.46 6.58159 3.246 6.42052" fill="#030229"/>
</svg>
