<svg width="8" height="8" viewBox="0 0 8 8" fill="none" xmlns="http://www.w3.org/2000/svg">
<path opacity="0.2" d="M3.246 7.70463C3.20733 7.65943 3.042 7.48875 2.906 7.32976C2.05067 6.39766 0.650667 3.9661 0.223333 2.69342C0.154667 2.50015 0.00933333 2.0115 0 1.75041C0 1.50024 0.048 1.26176 0.145333 1.03419C0.281333 0.750511 0.495333 0.522942 0.748 0.398246C0.923333 0.317974 1.448 0.193278 1.45733 0.193278C2.03133 0.0685826 2.964 0 3.99467 0C4.97667 0 5.87133 0.0685826 6.454 0.170677C6.46333 0.182367 7.11533 0.307063 7.33867 0.443449C7.74667 0.693619 8 1.18227 8 1.70521V1.75041C7.99 2.09099 7.73667 2.80721 7.72733 2.80721C7.29933 4.0113 5.968 6.38675 5.08333 7.34145C5.08333 7.34145 4.856 7.61033 4.714 7.72723C4.51 7.9096 4.25733 8 4.00467 8C3.72267 8 3.46 7.89791 3.246 7.70463" fill="#030229"/>
</svg>
