<svg width="8" height="8" viewBox="0 0 8 8" fill="none" xmlns="http://www.w3.org/2000/svg">
<path opacity="0.5" d="M3.246 7.08751C3.20733 7.04985 3.042 6.90762 2.906 6.77513C2.05067 5.99838 0.650667 3.97207 0.223333 2.91151C0.154667 2.75045 0.00933333 2.34324 0 2.12567C0 1.9172 0.048 1.71846 0.145333 1.52882C0.281333 1.29242 0.495333 1.10278 0.748 0.998864C0.923333 0.93197 1.448 0.828057 1.45733 0.828057C2.03133 0.724144 2.964 0.666992 3.99467 0.666992C4.97667 0.666992 5.87133 0.724144 6.454 0.809223C6.46333 0.818965 7.11533 0.922878 7.33867 1.03653C7.74667 1.24501 8 1.65222 8 2.088V2.12567C7.99 2.40948 7.73667 3.00633 7.72733 3.00633C7.29933 4.00974 5.968 5.98928 5.08333 6.78487C5.08333 6.78487 4.856 7.00893 4.714 7.10635C4.51 7.25832 4.25733 7.33366 4.00467 7.33366C3.72267 7.33366 3.46 7.24858 3.246 7.08751" fill="#030229"/>
</svg>
