<svg width="28" height="28" viewBox="0 0 28 28" fill="none" xmlns="http://www.w3.org/2000/svg">
<path d="M14 0C6.286 0 0 6.272 0 14C0 21.714 6.286 28 14 28C21.728 28 28 21.714 28 14C28 6.40298 21.9388 0.213028 14.3917 0.00538189L14 0Z" fill="white"/>
<path opacity="0.5" d="M16.758 18.1164C17.178 18.5224 17.178 19.1805 16.772 19.6005C16.562 19.8105 16.296 19.9084 16.016 19.9084C15.75 19.9084 15.484 19.8105 15.288 19.6005L10.402 14.7424C10.206 14.5464 10.094 14.2804 10.094 14.0004C10.094 13.7204 10.206 13.4544 10.402 13.2584L15.288 8.40045C15.694 7.98045 16.352 7.98045 16.772 8.40045C17.178 8.80645 17.178 9.47845 16.758 9.88445L12.628 14.0004L16.758 18.1164Z" fill="#030229"/>
</svg>
